<svg width="512" height="512" viewBox="0 0 512 512" fill="none" xmlns="http://www.w3.org/2000/svg">
<path d="M0 256C0 114.615 114.615 0 256 0V0C397.385 0 512 114.615 512 256V256C512 397.385 397.385 512 256 512V512C114.615 512 0 397.385 0 256V256Z" fill="#2858D1"/>
<path d="M172.55 385.45L109.55 188.05H85.05V152.7H183.05V188.05H152.6L190.05 309.15L247.1 175.1H268.1L325.15 309.15L360.15 188.05H328.65V152.7H426.65V188.05H402.15L340.2 385.45H318.15L256.55 243.7L194.6 385.45H172.55Z" fill="white"/>
</svg>
